<?xml version="1.0" encoding="UTF-8" standalone="no"?>
<!-- Created with Inkscape (http://www.inkscape.org/) -->

<svg
   xmlns:dc="http://purl.org/dc/elements/1.1/"
   xmlns:cc="http://creativecommons.org/ns#"
   xmlns:rdf="http://www.w3.org/1999/02/22-rdf-syntax-ns#"
   xmlns:svg="http://www.w3.org/2000/svg"
   xmlns="http://www.w3.org/2000/svg"
   xmlns:sodipodi="http://sodipodi.sourceforge.net/DTD/sodipodi-0.dtd"
   xmlns:inkscape="http://www.inkscape.org/namespaces/inkscape"
   width="14"
   height="20.641106"
   viewBox="0 0 3.7041666 5.4612927"
   version="1.1"
   id="svg56722"
   inkscape:version="0.92.2 5c3e80d, 2017-08-06"
   sodipodi:docname="CKSS_1.svg">
  <defs
     id="defs56716" />
  <sodipodi:namedview
     id="base"
     pagecolor="#ffffff"
     bordercolor="#666666"
     borderopacity="1.0"
     inkscape:pageopacity="0.0"
     inkscape:pageshadow="2"
     inkscape:zoom="11.2"
     inkscape:cx="-8.2775265"
     inkscape:cy="1.6737916"
     inkscape:document-units="mm"
     inkscape:current-layer="layer1"
     showgrid="false"
     fit-margin-top="0"
     fit-margin-left="0"
     fit-margin-right="0"
     fit-margin-bottom="0"
     inkscape:window-width="1600"
     inkscape:window-height="882"
     inkscape:window-x="11"
     inkscape:window-y="173"
     inkscape:window-maximized="0"
     units="px" />
  <metadata
     id="metadata56719">
    <rdf:RDF>
      <cc:Work
         rdf:about="">
        <dc:format>image/svg+xml</dc:format>
        <dc:type
           rdf:resource="http://purl.org/dc/dcmitype/StillImage" />
        <dc:title></dc:title>
      </cc:Work>
    </rdf:RDF>
  </metadata>
  <g
     inkscape:label="Layer 1"
     inkscape:groupmode="layer"
     id="layer1"
     transform="translate(-30.16787,-65.374457)">
    <g
       transform="matrix(0.27523902,0,0,-0.27523902,-179.70403,387.0692)"
       id="g56702"
       style="stroke-width:1.2817142">
      <g
         transform="translate(762.5078,1167.3652)"
         id="g5827"
         style="stroke-width:1.2817142">
        <path
           inkscape:connector-curvature="0"
           id="path5829"
           style="fill:#000000;fill-opacity:1;fill-rule:nonzero;stroke:none;stroke-width:1.2817142"
           d="M 0,0 C 0,0.779 0.639,1.418 1.418,1.418 H 12.04 c 0.779,0 1.418,-0.639 1.418,-1.418 v -17.007 c 0,-0.779 -0.639,-1.417 -1.418,-1.417 H 1.418 C 0.639,-18.424 0,-17.786 0,-17.007 Z" />
      </g>
      <g
         style="fill:#282828;fill-opacity:1;stroke-width:1.2817142"
         id="g5839">
        <g
           style="fill:#282828;fill-opacity:1;stroke-width:1.2817142"
           id="g5841">
          <path
             inkscape:connector-curvature="0"
             id="path5849"
             style="fill:#282828;fill-opacity:1;stroke:none;stroke-width:1.2817142"
             d="m 764.617,1167.502 c -0.468,0 -0.852,-0.382 -0.852,-0.85 v 0 -15.724 c 0,-0.468 0.384,-0.851 0.852,-0.851 v 0 h 9.239 c 0.467,0 0.85,0.383 0.85,0.851 v 0 15.724 c 0,0.468 -0.383,0.85 -0.85,0.85 v 0 z" />
        </g>
      </g>
      <path
         inkscape:connector-curvature="0"
         id="path5859"
         style="fill:#444444;fill-opacity:1;fill-rule:nonzero;stroke:none;stroke-width:1.2817142"
         d="m 763.767,1167.503 h 10.94 v -8.504 h -10.94 z" />
      <path
         inkscape:connector-curvature="0"
         id="path5861"
         style="fill:#999999;fill-opacity:1;fill-rule:nonzero;stroke:none;stroke-width:1.2817142"
         d="m 763.767,1163.719 h 10.94 v -0.936 h -10.94 z" />
      <path
         inkscape:connector-curvature="0"
         id="path5863"
         style="fill:#999999;fill-opacity:1;fill-rule:nonzero;stroke:none;stroke-width:1.2817142"
         d="m 763.767,1159.935 h 10.94 v -0.936 h -10.94 z" />
      <path
         inkscape:connector-curvature="0"
         id="path5865"
         style="fill:#999999;fill-opacity:1;fill-rule:nonzero;stroke:none;stroke-width:1.2817142"
         d="m 763.767,1161.826 h 10.94 v -0.936 h -10.94 z" />
      <path
         inkscape:connector-curvature="0"
         id="path5867"
         style="fill:#999999;fill-opacity:1;fill-rule:nonzero;stroke:none;stroke-width:1.2817142"
         d="m 763.767,1165.611 h 10.94 v -0.936 h -10.94 z" />
      <path
         inkscape:connector-curvature="0"
         id="path5869"
         style="fill:#999999;fill-opacity:1;fill-rule:nonzero;stroke:none;stroke-width:1.2817142"
         d="m 763.767,1167.503 h 10.94 v -0.936 h -10.94 z" />
    </g>
    <rect
       style="opacity:0.58499995;fill:#b91316;fill-opacity:1;stroke:none;stroke-width:0.20511287;stroke-miterlimit:4;stroke-dasharray:none;stroke-opacity:1"
       id="rect1398"
       width="3.0108395"
       height="4.7983217"
       x="30.51445"
       y="65.726822" />
    <g
       aria-label="ON"
       style="font-style:normal;font-variant:normal;font-weight:normal;font-stretch:normal;font-size:2.46944427px;line-height:6.61458302px;font-family:sans-serif;font-variant-ligatures:normal;font-variant-position:normal;font-variant-caps:normal;font-variant-numeric:normal;font-variant-alternates:normal;font-feature-settings:normal;text-indent:0;text-align:start;text-decoration:none;text-decoration-line:none;text-decoration-style:solid;text-decoration-color:#000000;letter-spacing:0px;word-spacing:0px;text-transform:none;writing-mode:lr-tb;direction:ltr;text-orientation:mixed;dominant-baseline:auto;baseline-shift:baseline;text-anchor:start;white-space:normal;shape-padding:0;opacity:1;vector-effect:none;fill:#ffffff;fill-opacity:1;stroke:none;stroke-width:0.26458332;stroke-linecap:butt;stroke-linejoin:miter;stroke-miterlimit:4;stroke-dasharray:none;stroke-dashoffset:0;stroke-opacity:1"
       id="text1391"
       transform="translate(6.6618304,-1.6063988)">
      <path
         d="m 24.697182,67.96697 q -0.18948,0 -0.301446,0.141249 -0.111104,0.141249 -0.111104,0.384989 0,0.242879 0.111104,0.384128 0.111966,0.141249 0.301446,0.141249 0.189481,0 0.299724,-0.141249 0.111104,-0.141249 0.111104,-0.384128 0,-0.24374 -0.111104,-0.384989 -0.110243,-0.141249 -0.299724,-0.141249 z m 0,-0.141249 q 0.27044,0 0.43236,0.181729 0.161919,0.180867 0.161919,0.485758 0,0.30403 -0.161919,0.485759 -0.16192,0.180867 -0.43236,0.180867 -0.271301,0 -0.434082,-0.180867 -0.161919,-0.180868 -0.161919,-0.485759 0,-0.304891 0.161919,-0.485758 0.162781,-0.181729 0.434082,-0.181729 z"
         style="font-size:1.76388884px;stroke-width:0.26458332;fill:#ffffff;fill-opacity:1"
         id="path1393"
         inkscape:connector-curvature="0" />
      <path
         d="m 25.563624,67.848975 h 0.234266 l 0.570164,1.075731 v -1.075731 h 0.168809 v 1.285882 h -0.234266 l -0.570163,-1.075731 v 1.075731 h -0.16881 z"
         style="font-size:1.76388884px;stroke-width:0.26458332;fill:#ffffff;fill-opacity:1"
         id="path1395"
         inkscape:connector-curvature="0" />
    </g>
  </g>
</svg>
