<?xml version="1.0" encoding="UTF-8" standalone="no"?>
<!-- Created with Inkscape (http://www.inkscape.org/) -->

<svg
   xmlns:dc="http://purl.org/dc/elements/1.1/"
   xmlns:cc="http://creativecommons.org/ns#"
   xmlns:rdf="http://www.w3.org/1999/02/22-rdf-syntax-ns#"
   xmlns:svg="http://www.w3.org/2000/svg"
   xmlns="http://www.w3.org/2000/svg"
   xmlns:sodipodi="http://sodipodi.sourceforge.net/DTD/sodipodi-0.dtd"
   xmlns:inkscape="http://www.inkscape.org/namespaces/inkscape"
   width="14"
   height="20.641106"
   viewBox="0 0 3.7041666 5.4612927"
   version="1.1"
   id="svg56722"
   inkscape:version="0.92.2 5c3e80d, 2017-08-06"
   sodipodi:docname="CKSS_0.svg">
  <defs
     id="defs56716" />
  <sodipodi:namedview
     id="base"
     pagecolor="#ffffff"
     bordercolor="#666666"
     borderopacity="1.0"
     inkscape:pageopacity="0.0"
     inkscape:pageshadow="2"
     inkscape:zoom="14.737984"
     inkscape:cx="27.946429"
     inkscape:cy="3.75"
     inkscape:document-units="mm"
     inkscape:current-layer="layer1"
     showgrid="false"
     fit-margin-top="0"
     fit-margin-left="0"
     fit-margin-right="0"
     fit-margin-bottom="0"
     inkscape:window-width="1975"
     inkscape:window-height="856"
     inkscape:window-x="234"
     inkscape:window-y="502"
     inkscape:window-maximized="0"
     units="px" />
  <metadata
     id="metadata56719">
    <rdf:RDF>
      <cc:Work
         rdf:about="">
        <dc:format>image/svg+xml</dc:format>
        <dc:type
           rdf:resource="http://purl.org/dc/dcmitype/StillImage" />
        <dc:title></dc:title>
      </cc:Work>
    </rdf:RDF>
  </metadata>
  <g
     inkscape:label="Layer 1"
     inkscape:groupmode="layer"
     id="layer1"
     transform="translate(-35.423779,-63.339207)">
    <g
       transform="matrix(0.27523902,0,0,-0.27523902,-180.22814,385.03395)"
       id="g56714"
       style="stroke-width:1.2817142">
      <path
         d="m 783.5078,1167.3652 c 0,0.779 0.639,1.418 1.418,1.418 h 10.622 c 0.779,0 1.418,-0.639 1.418,-1.418 v -17.007 c 0,-0.779 -0.639,-1.417 -1.418,-1.417 h -10.622 c -0.779,0 -1.418,0.638 -1.418,1.417 z"
         style="fill:#000000;fill-opacity:1;fill-rule:nonzero;stroke:none;stroke-width:1.2817142"
         id="path5785"
         inkscape:connector-curvature="0" />
      <g
         style="fill:#282828;fill-opacity:1;stroke-width:1.2817142"
         id="g5795">
        <g
           style="fill:#282828;fill-opacity:1;stroke-width:1.2817142"
           id="g5797">
          <path
             inkscape:connector-curvature="0"
             id="path5805"
             style="fill:#282828;fill-opacity:1;stroke:none;stroke-width:1.2817142"
             d="m 785.616,1167.502 c -0.468,0 -0.85,-0.382 -0.85,-0.85 v 0 -15.724 c 0,-0.468 0.382,-0.851 0.85,-0.851 v 0 h 9.241 c 0.466,0 0.849,0.383 0.849,0.851 v 0 15.724 c 0,0.468 -0.383,0.85 -0.849,0.85 v 0 z" />
        </g>
      </g>
      <path
         inkscape:connector-curvature="0"
         id="path5815"
         style="fill:#444444;fill-opacity:1;fill-rule:nonzero;stroke:none;stroke-width:1.2817142"
         d="m 784.767,1158.581 h 10.94 v -8.504 h -10.94 z" />
      <path
         inkscape:connector-curvature="0"
         id="path5817"
         style="fill:#999999;fill-opacity:1;fill-rule:nonzero;stroke:none;stroke-width:1.2817142"
         d="m 784.767,1154.797 h 10.94 v -0.936 h -10.94 z" />
      <path
         inkscape:connector-curvature="0"
         id="path5819"
         style="fill:#999999;fill-opacity:1;fill-rule:nonzero;stroke:none;stroke-width:1.2817142"
         d="m 784.767,1151.013 h 10.94 v -0.936 h -10.94 z" />
      <path
         inkscape:connector-curvature="0"
         id="path5821"
         style="fill:#999999;fill-opacity:1;fill-rule:nonzero;stroke:none;stroke-width:1.2817142"
         d="m 784.767,1152.904 h 10.94 v -0.936 h -10.94 z" />
      <path
         inkscape:connector-curvature="0"
         id="path5823"
         style="fill:#999999;fill-opacity:1;fill-rule:nonzero;stroke:none;stroke-width:1.2817142"
         d="m 784.767,1156.689 h 10.94 v -0.936 h -10.94 z" />
      <path
         inkscape:connector-curvature="0"
         id="path5825"
         style="fill:#999999;fill-opacity:1;fill-rule:nonzero;stroke:none;stroke-width:1.2817142"
         d="m 784.767,1158.581 h 10.94 v -0.936 h -10.94 z" />
    </g>
    <rect
       style="opacity:0.58499995;fill:#b91316;fill-opacity:1;stroke:none;stroke-width:0.20658146;stroke-miterlimit:4;stroke-dasharray:none;stroke-opacity:1"
       id="rect1398"
       width="3.0108395"
       height="4.8672786"
       x="35.770084"
       y="63.620605" />
    <g
       aria-label="OFF"
       style="font-style:normal;font-variant:normal;font-weight:normal;font-stretch:normal;font-size:2.46944427px;line-height:6.61458302px;font-family:sans-serif;font-variant-ligatures:normal;font-variant-position:normal;font-variant-caps:normal;font-variant-numeric:normal;font-variant-alternates:normal;font-feature-settings:normal;text-indent:0;text-align:start;text-decoration:none;text-decoration-line:none;text-decoration-style:solid;text-decoration-color:#000000;letter-spacing:0px;word-spacing:0px;text-transform:none;writing-mode:lr-tb;direction:ltr;text-orientation:mixed;dominant-baseline:auto;baseline-shift:baseline;text-anchor:start;white-space:normal;shape-padding:0;opacity:1;vector-effect:none;fill:#ffe1e1;fill-opacity:1;stroke:none;stroke-width:0.26458332;stroke-linecap:butt;stroke-linejoin:miter;stroke-miterlimit:4;stroke-dasharray:none;stroke-dashoffset:0;stroke-opacity:1"
       id="text1436">
      <path
         d="m 36.390421,67.031306 q -0.170533,0 -0.271302,0.127124 -0.09999,0.127125 -0.09999,0.346491 0,0.218591 0.09999,0.345715 0.100769,0.127124 0.271302,0.127124 0.170532,0 0.26975,-0.127124 0.09999,-0.127124 0.09999,-0.345715 0,-0.219366 -0.09999,-0.346491 -0.09922,-0.127124 -0.26975,-0.127124 z m 0,-0.127124 q 0.243396,0 0.389123,0.163556 0.145728,0.162781 0.145728,0.437183 0,0.273627 -0.145728,0.437183 -0.145727,0.16278 -0.389123,0.16278 -0.244172,0 -0.390674,-0.16278 -0.145728,-0.162781 -0.145728,-0.437183 0,-0.274402 0.145728,-0.437183 0.146502,-0.163556 0.390674,-0.163556 z"
         style="font-size:1.58749998px;stroke-width:0.26458332"
         id="path1438" />
      <path
         d="m 37.170218,66.925111 h 0.665076 v 0.131775 h -0.508496 v 0.341065 h 0.458886 v 0.131775 h -0.458886 v 0.552679 h -0.15658 z"
         style="font-size:1.58749998px;stroke-width:0.26458332"
         id="path1440" />
      <path
         d="m 38.084891,66.925111 h 0.665075 v 0.131775 H 38.24147 v 0.341065 h 0.458887 v 0.131775 H 38.24147 v 0.552679 h -0.156579 z"
         style="font-size:1.58749998px;stroke-width:0.26458332"
         id="path1442" />
    </g>
  </g>
</svg>
